<svg width="149" height="150" viewBox="0 0 149 150" fill="none" xmlns="http://www.w3.org/2000/svg">
<path d="M133.348 3.87767C130.06 -0.10231 118.085 -1.49186 112.189 1.97396C80.0689 20.8517 86.7052 90.4092 52.0914 83.9238C40.8695 81.8211 42.8991 67.6435 25.0002 64.4287C16.2237 62.8526 2.00714 72.4956 0.267736 90.0029C-1.46548 107.449 4.89839 141.346 28.7105 148.02C61.8537 157.31 67.2392 131.528 96.8059 119.946C109.753 114.875 115.98 135.522 135.565 130.358C141.371 128.828 145.724 115.025 143.343 107.748C138.858 94.0379 117.396 93.2903 131.604 74.9422C143.842 59.1392 153.112 38.1037 147.14 30.5826C144.381 27.1086 136.198 31.1906 131.354 21.9723C129.234 17.9393 139.989 11.9161 133.348 3.87767Z" fill="url(#paint0_linear_10:7966)"/>
<path opacity="0.1" d="M141.103 138.089C140.289 138.089 139.63 138.745 139.63 139.554V140.875H132.174V34.9763L108.851 62.2212L95.5648 56.3478L85.2494 70.2328C84.0964 67.9165 82.5255 65.7539 80.5298 63.8604C74.0658 57.7277 64.7839 56.1228 56.8367 59.0203C56.9171 58.3373 56.9631 57.6439 56.9631 56.9396C56.9631 47.1459 48.982 39.2068 39.1367 39.2068C29.2913 39.2068 21.3103 47.1459 21.3103 56.9396C21.3103 66.7332 29.2916 74.6724 39.1367 74.6724C40.3663 74.6724 41.5667 74.5485 42.7262 74.3126C41.0445 80.4451 41.9867 87.1406 45.5589 92.6399L44.3643 98.9027C44.245 99.5285 44.5401 100.106 45.0226 100.412L42.3195 102.015L26.4372 125.087L12.6074 130.448V24.4792H13.935C14.7485 24.4792 15.4076 23.8233 15.4076 23.0144C15.4076 22.2055 14.7485 21.5496 13.935 21.5496H8.33366C7.52021 21.5496 6.86108 22.2055 6.86108 23.0144C6.86108 23.8233 7.52021 24.4792 8.33366 24.4792H9.66163V142.34C9.64602 143.127 10.3431 143.82 11.1342 143.805H139.63V145.125C139.63 145.934 140.289 146.59 141.103 146.59C141.916 146.59 142.575 145.934 142.575 145.125V139.554C142.575 138.745 141.916 138.089 141.103 138.089Z" fill="#639A73"/>
<path d="M11.1343 123.988L26.4367 118.056L42.319 94.9839L59.4568 84.8214L67.1215 70.5193L79.2977 71.213L95.5646 49.3165L108.851 55.19L132.174 27.9451V135.308H11.1343V123.988Z" fill="#73B386"/>
<path d="M123.339 51.8232V135.308L38.1774 135.311H19.3638V130.23L32.1869 125.262L48.5119 101.543L66.0944 91.1162L72.2586 79.6143L83.5621 80.2588L98.4557 60.2139L111.297 65.8887L123.339 51.8232Z" fill="white"/>
<path d="M123.339 70.5732V135.308L38.1775 135.311L48.512 120.293L66.0946 109.866L72.2587 98.3643L83.5622 99.0088L98.4558 78.9639L111.297 84.6387L123.339 70.5732Z" fill="#73B386"/>
<path d="M42.0812 99.1113C44.7318 99.1113 46.8806 96.9738 46.8806 94.3371C46.8806 91.7004 44.7318 89.5629 42.0812 89.5629C39.4305 89.5629 37.2817 91.7004 37.2817 94.3371C37.2817 96.9738 39.4305 99.1113 42.0812 99.1113Z" fill="white"/>
<path d="M80.9255 89.3645C89.9807 80.3569 89.8484 65.6712 80.5294 56.8292C71.7178 48.4687 57.6656 48.5121 48.9032 56.9232C40.878 64.6265 39.7659 76.6916 45.5581 85.6089L44.3635 91.8717C44.1701 92.8866 45.0648 93.7763 46.0847 93.5838L52.3805 92.3956C61.2334 98.0856 73.1712 97.0778 80.9255 89.3645Z" fill="white"/>
<path d="M75.911 74.2766L66.0795 60.612C65.4354 59.717 64.0977 59.717 63.4539 60.612L53.6224 74.2766C52.7889 75.435 53.7717 77.0194 55.1866 76.7976L58.9826 76.2026V85.0638C58.9826 85.9506 59.7053 86.6698 60.5971 86.6698H68.9366C69.8281 86.6698 70.5511 85.9509 70.5511 85.0638V76.2026L74.3471 76.7976C75.7614 77.0194 76.7445 75.4353 75.911 74.2766Z" fill="#92E3A9"/>
<path d="M39.136 67.6412C48.9812 67.6412 56.9624 59.702 56.9624 49.9084C56.9624 40.1149 48.9812 32.1756 39.136 32.1756C29.2907 32.1756 21.3096 40.1149 21.3096 49.9084C21.3096 59.702 29.2907 67.6412 39.136 67.6412Z" fill="#92E3A9"/>
<path d="M39.136 63.3094C46.5762 63.3094 52.6077 57.3096 52.6077 49.9084C52.6077 42.5073 46.5762 36.5074 39.136 36.5074C31.6958 36.5074 25.6643 42.5073 25.6643 49.9084C25.6643 57.3096 31.6958 63.3094 39.136 63.3094Z" fill="white"/>
<path d="M96.037 54.6826C98.6876 54.6826 100.836 52.5451 100.836 49.9084C100.836 47.2716 98.6876 45.1342 96.037 45.1342C93.3863 45.1342 91.2375 47.2716 91.2375 49.9084C91.2375 52.5451 93.3863 54.6826 96.037 54.6826Z" fill="white"/>
<path d="M141.103 131.058C140.289 131.058 139.63 131.714 139.63 132.523V133.844H40.9715L49.5442 121.386L66.8487 111.124C67.0791 110.988 67.2678 110.791 67.3942 110.555L73.1151 99.8803L83.4782 100.471C83.9727 100.497 84.4513 100.277 84.7467 99.8794L98.9385 80.7799L110.699 85.9775C111.296 86.2409 111.995 86.0824 112.418 85.5887L124.461 71.5233C124.989 70.9072 124.914 69.9829 124.295 69.4581C123.676 68.9337 122.747 69.0076 122.219 69.6234L110.89 82.8556L99.0545 77.6252C98.4237 77.3466 97.6827 77.5409 97.2724 78.0934L82.8518 97.5011L72.3435 96.902C71.7751 96.8701 71.2299 97.1712 70.9599 97.6754L64.9889 108.817L47.7586 119.035C47.5754 119.144 47.4181 119.291 47.2977 119.466L37.4032 133.844H12.6068V124.989L26.97 119.423C27.2459 119.316 27.483 119.129 27.6506 118.885L40.4125 100.345C40.9453 100.492 41.504 100.576 42.083 100.576C45.434 100.576 48.1715 97.9447 48.3373 94.6499L52.0888 93.943C55.9496 96.2894 60.3535 97.456 64.7562 97.4557C69.7159 97.4554 74.6725 95.9739 78.8402 93.0284C79.5035 92.5596 79.659 91.6453 79.188 90.9858C78.7165 90.3263 77.7971 90.1719 77.1347 90.6401C70.0781 95.627 60.4522 95.8388 53.1815 91.1663C52.864 90.9621 52.4791 90.8876 52.1083 90.9574L46.5355 92.0085C46.5284 92.0097 46.5216 92.0091 46.5146 92.0103C46.5081 92.0115 46.5025 92.0144 46.496 92.0159L45.8124 92.1448L46.1128 90.5683C46.1134 90.5645 46.1143 90.5604 46.1152 90.5566L47.0058 85.8814C47.0759 85.512 47.0008 85.1296 46.7955 84.8135C43.6651 79.9954 42.6449 74.0982 43.9376 68.5048C51.2574 66.6339 56.9074 60.5871 58.1679 53.0806C65.5947 50.7111 73.8862 52.5533 79.5132 57.8906C87.2077 65.1896 88.3866 76.773 82.3167 85.4331C81.8516 86.0967 82.0154 87.0099 82.6824 87.4725C82.939 87.6503 83.2326 87.7359 83.5233 87.7359C83.9883 87.7359 84.4463 87.517 84.7323 87.1086C88.0138 82.4273 89.5223 76.7038 88.9798 70.993C88.7277 68.3408 88.0323 65.7711 86.9503 63.3758L92.9327 55.3221C93.8496 55.8445 94.9078 56.1474 96.0375 56.1474C98.1881 56.1474 100.088 55.0643 101.219 53.4184L108.255 56.528C108.447 56.6132 108.651 56.6542 108.852 56.6542C109.274 56.6542 109.687 56.4735 109.974 56.1389L133.296 28.8958C133.823 28.2799 133.749 27.3553 133.13 26.8309C132.511 26.3065 131.582 26.3803 131.054 26.9964L108.445 53.4061L102.257 50.6715C102.288 50.4207 102.309 50.167 102.309 49.9083C102.309 46.468 99.4954 43.6693 96.0372 43.6693C92.579 43.6693 89.7652 46.468 89.7652 49.9083C89.7652 51.1567 90.1396 52.318 90.7766 53.2942L85.4155 60.5112C84.3382 58.7885 83.0438 57.1918 81.5447 55.7698C75.4353 49.9748 66.5698 47.8004 58.4342 49.9529C58.4342 49.9379 58.4353 49.9233 58.4353 49.9083C58.4353 45.9612 57.2361 42.1661 54.9671 38.9332C54.5015 38.2696 53.5838 38.1076 52.9167 38.5707C52.2499 39.0339 52.0868 39.9471 52.5524 40.6104C54.4744 43.3491 55.4905 46.5641 55.4905 49.9083C55.4905 58.8788 48.1541 66.1763 39.1367 66.1763C30.1189 66.1763 22.7826 58.8785 22.7826 49.9083C22.7826 40.9382 30.1189 33.6404 39.1367 33.6404C41.9655 33.6404 44.7575 34.3746 47.2105 35.7635C47.9179 36.1634 48.8165 35.9179 49.2188 35.2151C49.6208 34.512 49.374 33.6175 48.6675 33.2173C45.7712 31.5773 42.4756 30.7104 39.1367 30.7104C28.495 30.7104 19.8374 39.3225 19.8374 49.9081C19.8374 60.4936 28.495 69.1057 39.1367 69.1057C39.7063 69.1057 40.2688 69.0761 40.8257 69.0278C39.7852 74.8382 40.9014 80.8552 44.0038 85.9004L43.5517 88.2747C43.0735 88.1601 42.5816 88.0983 42.083 88.0983C38.6239 88.0983 35.8098 90.8964 35.8098 94.3356C35.8098 96.1435 36.5915 97.7692 37.8302 98.9097L25.4771 116.856L12.6071 121.844V17.448H13.9347C14.7482 17.448 15.4073 16.792 15.4073 15.9832C15.4073 15.1743 14.7482 14.5183 13.9347 14.5183H8.33366C7.52021 14.5183 6.86108 15.1743 6.86108 15.9832C6.86108 16.792 7.52021 17.448 8.33366 17.448H9.66163V135.308C9.66163 135.697 9.81654 136.07 10.0931 136.344C10.3693 136.619 10.7437 136.773 11.1342 136.773H139.63V138.094C139.63 138.903 140.289 139.559 141.103 139.559C141.916 139.559 142.575 138.903 142.575 138.094V132.523C142.575 131.714 141.916 131.058 141.103 131.058ZM96.0369 46.599C97.8715 46.599 99.3638 48.0834 99.3638 49.9083C99.3638 51.7332 97.8715 53.2177 96.0369 53.2177C94.2024 53.2177 92.7101 51.7332 92.7101 49.9083C92.7101 48.0834 94.2024 46.599 96.0369 46.599ZM42.0827 91.0283C42.3964 91.0283 42.7056 91.0722 43.0025 91.1575L42.9185 91.5975C42.7356 92.5505 43.0384 93.5293 43.7285 94.2158C44.1705 94.6555 44.7333 94.935 45.3318 95.0331C45.0093 96.5247 43.6754 97.6464 42.0824 97.6464C40.2476 97.6464 38.7544 96.1614 38.7544 94.3359C38.7547 92.5119 40.2476 91.0283 42.0827 91.0283Z" fill="#639A73"/>
<path d="M78.7689 40.609C78.3922 40.609 78.0149 40.466 77.7278 40.1801L76.1182 38.5793L74.5087 40.1801C73.9341 40.7519 73.0011 40.7519 72.4265 40.1801C71.8513 39.6079 71.8513 38.6803 72.4265 38.1085L75.0771 35.4718C75.6517 34.8999 76.5848 34.8999 77.1594 35.4718L79.81 38.1085C80.3852 38.6806 80.3852 39.6082 79.81 40.1801C79.5228 40.466 79.1456 40.609 78.7689 40.609Z" fill="#92E3A9"/>
<path d="M86.8446 29.6903C86.4679 29.6903 86.0906 29.5473 85.8035 29.2614L84.1939 27.6606L82.5844 29.2614C82.0098 29.8332 81.0768 29.8332 80.5022 29.2614C79.927 28.6892 79.927 27.7616 80.5022 27.1898L83.1528 24.5531C83.7274 23.9812 84.6604 23.9812 85.235 24.5531L87.8857 27.1898C88.4609 27.7619 88.4609 28.6895 87.8857 29.2614C87.5985 29.5473 87.2213 29.6903 86.8446 29.6903Z" fill="#92E3A9"/>
<path d="M114.035 36.2771C113.658 36.2771 113.281 36.1341 112.994 35.8482L111.384 34.2474L109.775 35.8482C109.2 36.4201 108.267 36.4201 107.692 35.8482C107.117 35.276 107.117 34.3485 107.692 33.7766L110.343 31.1399C110.918 30.568 111.851 30.568 112.425 31.1399L115.076 33.7766C115.651 34.3488 115.651 35.2763 115.076 35.8482C114.789 36.1339 114.412 36.2771 114.035 36.2771Z" fill="#92E3A9"/>
<path d="M25.6646 27.0536C25.288 27.0536 24.9107 26.9106 24.6235 26.6247C24.0483 26.0525 24.0483 25.125 24.6235 24.5531L27.5687 21.6234C28.1433 21.0516 29.0763 21.0516 29.6509 21.6234C30.2261 22.1956 30.2261 23.1231 29.6509 23.695L26.7057 26.6247C26.4183 26.9106 26.0413 27.0536 25.6646 27.0536Z" fill="#92E3A9"/>
<path d="M25.6646 105.982C25.288 105.982 24.9107 105.839 24.6235 105.553C24.0483 104.981 24.0483 104.053 24.6235 103.481L27.5687 100.552C28.1433 99.9797 29.0763 99.9797 29.6509 100.552C30.2261 101.124 30.2261 102.051 29.6509 102.623L26.7057 105.553C26.4183 105.839 26.0413 105.982 25.6646 105.982Z" fill="#92E3A9"/>
<path d="M41.3893 53.1842C40.8371 53.4611 40.2451 53.6015 39.6303 53.6015C38.422 53.6015 37.3417 53.0569 36.6301 52.2057H39.1171C39.616 52.2057 40.0206 51.8095 40.0206 51.3209C40.0206 50.8323 39.616 50.4361 39.1171 50.4361H35.8115C35.7761 50.2303 35.7534 50.0202 35.7534 49.8047C35.7534 49.5891 35.7761 49.3791 35.8115 49.1733H39.1171C39.616 49.1733 40.0206 48.7771 40.0206 48.2885C40.0206 47.7999 39.616 47.4036 39.1171 47.4036H36.6301C37.3417 46.5524 38.4221 46.0079 39.6303 46.0079C40.2451 46.0079 40.8369 46.1483 41.3893 46.4254C41.8336 46.648 42.3779 46.476 42.6052 46.041C42.8326 45.606 42.6569 45.0728 42.2127 44.8502C41.403 44.4443 40.534 44.2383 39.6301 44.2383C37.3735 44.2383 35.42 45.533 34.5029 47.4036H33.5947C33.0958 47.4036 32.6912 47.7999 32.6912 48.2885C32.6912 48.7771 33.0958 49.1733 33.5947 49.1733H33.9837C33.9597 49.3807 33.9461 49.5911 33.9461 49.8047C33.9461 50.0183 33.9597 50.2287 33.9837 50.4361H33.5947C33.0958 50.4361 32.6912 50.8323 32.6912 51.3209C32.6912 51.8095 33.0958 52.2057 33.5947 52.2057H34.5029C35.42 54.0764 37.3735 55.3711 39.6301 55.3711C40.5342 55.3711 41.403 55.1653 42.2127 54.7593C42.6569 54.5367 42.8326 54.0035 42.6052 53.5685C42.3779 53.1336 41.8335 52.9615 41.3893 53.1842Z" fill="#92E3A9"/>
<path d="M39.2871 41.1109C40.0435 41.1109 40.6567 40.4993 40.6567 39.7449C40.6567 38.9904 40.0435 38.3788 39.2871 38.3788C38.5307 38.3788 37.9175 38.9904 37.9175 39.7449C37.9175 40.4993 38.5307 41.1109 39.2871 41.1109Z" fill="#92E3A9"/>
<path d="M39.2871 61.5234C40.0435 61.5234 40.6567 60.9118 40.6567 60.1574C40.6567 59.4029 40.0435 58.7913 39.2871 58.7913C38.5307 58.7913 37.9175 59.4029 37.9175 60.1574C37.9175 60.9118 38.5307 61.5234 39.2871 61.5234Z" fill="#92E3A9"/>
<path d="M34.1707 42.4783C34.9271 42.4783 35.5403 41.8667 35.5403 41.1122C35.5403 40.3578 34.9271 39.7462 34.1707 39.7462C33.4142 39.7462 32.801 40.3578 32.801 41.1122C32.801 41.8667 33.4142 42.4783 34.1707 42.4783Z" fill="#92E3A9"/>
<path d="M44.4038 60.1561C45.1602 60.1561 45.7734 59.5445 45.7734 58.79C45.7734 58.0356 45.1602 57.424 44.4038 57.424C43.6474 57.424 43.0342 58.0356 43.0342 58.79C43.0342 59.5445 43.6474 60.1561 44.4038 60.1561Z" fill="#92E3A9"/>
<path d="M30.4251 46.2141C31.1815 46.2141 31.7947 45.6025 31.7947 44.848C31.7947 44.0936 31.1815 43.482 30.4251 43.482C29.6686 43.482 29.0554 44.0936 29.0554 44.848C29.0554 45.6025 29.6686 46.2141 30.4251 46.2141Z" fill="#92E3A9"/>
<path d="M48.1494 56.4203C48.9058 56.4203 49.519 55.8087 49.519 55.0543C49.519 54.2998 48.9058 53.6882 48.1494 53.6882C47.393 53.6882 46.7798 54.2998 46.7798 55.0543C46.7798 55.8087 47.393 56.4203 48.1494 56.4203Z" fill="#92E3A9"/>
<path d="M29.054 51.317C29.8104 51.317 30.4236 50.7054 30.4236 49.951C30.4236 49.1966 29.8104 48.585 29.054 48.585C28.2975 48.585 27.6843 49.1966 27.6843 49.951C27.6843 50.7054 28.2975 51.317 29.054 51.317Z" fill="#92E3A9"/>
<path d="M49.5203 51.317C50.2767 51.317 50.8899 50.7054 50.8899 49.951C50.8899 49.1966 50.2767 48.585 49.5203 48.585C48.7638 48.585 48.1506 49.1966 48.1506 49.951C48.1506 50.7054 48.7638 51.317 49.5203 51.317Z" fill="#92E3A9"/>
<path d="M30.4251 56.4203C31.1815 56.4203 31.7947 55.8087 31.7947 55.0543C31.7947 54.2998 31.1815 53.6882 30.4251 53.6882C29.6686 53.6882 29.0554 54.2998 29.0554 55.0543C29.0554 55.8087 29.6686 56.4203 30.4251 56.4203Z" fill="#92E3A9"/>
<path d="M48.1494 46.2141C48.9058 46.2141 49.519 45.6025 49.519 44.848C49.519 44.0936 48.9058 43.482 48.1494 43.482C47.393 43.482 46.7798 44.0936 46.7798 44.848C46.7798 45.6025 47.393 46.2141 48.1494 46.2141Z" fill="#92E3A9"/>
<path d="M34.1707 60.1561C34.9271 60.1561 35.5403 59.5445 35.5403 58.79C35.5403 58.0356 34.9271 57.424 34.1707 57.424C33.4142 57.424 32.801 58.0356 32.801 58.79C32.801 59.5445 33.4142 60.1561 34.1707 60.1561Z" fill="#92E3A9"/>
<path d="M44.4038 42.4783C45.1602 42.4783 45.7734 41.8667 45.7734 41.1122C45.7734 40.3578 45.1602 39.7462 44.4038 39.7462C43.6474 39.7462 43.0342 40.3578 43.0342 41.1122C43.0342 41.8667 43.6474 42.4783 44.4038 42.4783Z" fill="#92E3A9"/>
<defs>
<linearGradient id="paint0_linear_10:7966" x1="60.7883" y1="190.5" x2="67.3667" y2="-4.9478" gradientUnits="userSpaceOnUse">
<stop offset="0.427083" stop-color="#DEF7E5" stop-opacity="0.5"/>
<stop offset="1" stop-color="#DEF7E5"/>
</linearGradient>
</defs>
</svg>
